<svg fill="#FFFFFF" xmlns="http://www.w3.org/2000/svg"  viewBox="0 0 50 50" width="100px" height="100px"><path d="M 35.474609 9 C 30.73439 9.125432 26.927996 11.961828 25.556641 16 L 19 16 C 18.701 16 18.433 16.130891 18.25 16.337891 C 18.067 16.130891 17.799 16 17.5 16 L 11 16 L 11 11 C 11 10.448 10.552 10 10 10 L 3 10 C 2.448 10 2 10.448 2 11 L 2 28.921875 C 2 31.299875 2.8668594 33.241156 4.5058594 34.535156 C 5.8508594 35.597156 7.6932031 35.998047 9.4082031 35.998047 C 10.145644 35.998047 10.83801 35.906921 11.478516 35.779297 L 11.478516 41.369141 C 11.478516 41.815141 11.775078 42.207078 12.205078 42.330078 C 13.774078 42.778078 15.244312 43 16.695312 43 C 17.607312 43 18.511781 42.913234 19.425781 42.740234 C 22.931579 42.100987 25.539356 39.539591 26.542969 36.021484 C 26.546871 36.02149 26.550786 36.021484 26.554688 36.021484 C 28.382688 36.021484 30.221359 35.403266 31.568359 34.322266 C 33.089359 33.135266 34.042781 31.174 34.175781 29 L 36.5 29 C 36.858 29 37.172609 28.811344 37.349609 28.527344 C 38.505609 32.815344 42.395 35.976562 47 35.976562 C 47.552 35.976562 48 35.528562 48 34.976562 L 48 28.158203 C 48 27.606203 47.552 27.158203 47 27.158203 C 46.098 27.158203 46 26.268719 46 25.886719 L 46 25 L 47 25 C 47.266 25 47.520031 24.895031 47.707031 24.707031 C 47.894031 24.519031 48 24.264047 48 23.998047 L 47.990234 16.998047 C 47.989234 16.446047 47.542234 16 46.990234 16 L 45.361328 16 C 44.097328 12.406 40.597609 8.848 35.474609 9 z M 35.753906 10.996094 C 40.036906 10.996094 42.848156 14.215813 43.660156 17.257812 C 43.776156 17.694812 44.173953 18 44.626953 18 L 45.992188 18 L 45.998047 23 L 45 23 C 44.448 23 44 23.448 44 24 L 44 25.886719 C 44 27.423719 44.785 28.591 46 29 L 46 33.914062 C 42.059 33.414062 39 30 39 25.875 L 39 19.255859 C 39 17.490859 37.397 16 35.5 16 C 33.57 16 32 17.486453 32 19.314453 L 32 21 C 32 21.552 32.448 22 33 22 L 35.535156 22 L 35.505859 27 L 33.25 27 C 32.745 27 32.319813 27.376953 32.257812 27.876953 L 32.197266 28.351562 C 32.192266 28.392562 32.191406 28.433609 32.191406 28.474609 C 32.191406 30.243609 31.497172 31.839906 30.326172 32.753906 C 29.425172 33.477906 28.229 33.921813 27 34.007812 L 27 32.720703 L 27.03125 18.734375 C 27.345165 14.403263 30.886802 11.121214 35.525391 11 C 35.602391 10.998 35.678906 10.996094 35.753906 10.996094 z M 4 12 L 9 12 L 9 17 L 9 28.845703 L 9 28.988281 C 9 29.531935 9.0691285 30.052239 9.1914062 30.554688 C 9.2118122 30.645929 9.2388982 30.738587 9.2636719 30.832031 C 9.2838528 30.900974 9.301673 30.97094 9.3242188 31.039062 C 9.606336 31.986444 10.139445 32.999091 11.095703 33.841797 C 9.5481826 34.132318 7.1710144 34.091688 5.7441406 32.964844 C 4.5861406 32.049844 4 30.690875 4 28.921875 L 4 12 z M 11 18 L 16.5 18 L 16.5 27.125 C 16.5 28.507 17.404 29 18.25 29 C 19.346 29 20 28.315969 20 27.167969 L 20 18 L 25.033203 18 L 25.03125 18.722656 C 25.018776 18.934146 25 19.144095 25 19.359375 L 25 32.71875 C 25 36.95475 22.671547 40.114438 19.060547 40.773438 C 17.225547 41.122438 15.434469 41.068609 13.480469 40.599609 L 13.480469 35.6875 C 14.307469 35.8945 15.39375 36.072703 16.46875 35.970703 C 18.61975 35.767703 19.545484 35.035047 20.271484 33.998047 C 20.561484 33.583047 20.492234 33.021594 20.115234 32.683594 C 19.738234 32.346594 19.164203 32.345641 18.783203 32.681641 C 18.719203 32.738641 17.178938 34.058094 14.460938 33.371094 C 13.804658 33.203918 13.276605 32.956626 12.841797 32.662109 C 12.016221 31.961707 11.470887 31.185973 11.203125 30.322266 C 11.183156 30.249174 11.156897 30.175656 11.140625 30.103516 C 11.124379 30.039137 11.112916 29.97355 11.099609 29.908203 C 11.068536 29.740487 11.042243 29.574675 11.027344 29.417969 C 11.024553 29.386987 11.023665 29.35541 11.021484 29.324219 C 11.008373 29.156692 11 28.99246 11 28.845703 L 11 18 z M 35.5 18 C 36.285 18 37 18.598859 37 19.255859 L 37 20.111328 C 36.86 20.039328 36.703969 20 36.542969 20 L 34 20 L 34 19.314453 C 34 18.577453 34.659 18 35.5 18 z"/></svg>